<svg width="276.6130859375px" height="89.6px" xmlns="http://www.w3.org/2000/svg" viewBox="111.69345703125 30.200000000000003 276.6130859375 89.6" style="background: rgba(0, 0, 0, 0);" preserveAspectRatio="xMidYMid"><defs><linearGradient id="editing-gradient-gradient" x1="0.7867882181755229" x2="0.2132117818244771" y1="0.09042397785550399" y2="0.909576022144496" gradientUnits="objectBoundingBox"><stop offset="0" stop-color="#ae9041"></stop><stop offset="1" stop-color="rgba(37.319381630430556%,48.678091162913454%,80.53726734834558%,0.976)"></stop></linearGradient></defs><g><g transform="translate(157.97652831673622, 93.02499580383301)"><path d="M8.11-1.10L0.34 0.05L0.34 0.05Q1.78-6.67 3.02-13.01L3.02-13.01L3.02-13.01Q3.50-15.74 4.03-18.67L4.03-18.67L4.03-18.67Q4.56-21.60 5.02-24.48L5.02-24.48L5.02-24.48Q5.47-27.36 5.83-30.07L5.83-30.07L5.83-30.07Q6.19-32.78 6.38-34.99L6.38-34.99L6.38-34.99Q7.49-34.90 8.88-34.82L8.88-34.82L8.88-34.82Q10.27-34.75 11.47-34.66L11.47-34.66L11.47-34.66Q12.91-34.56 14.35-34.56L14.35-34.56L14.35-34.56Q14.30-34.37 14.21-33.84L14.21-33.84L14.21-33.84Q14.11-33.31 13.97-32.57L13.97-32.57L13.97-32.57Q13.82-31.82 13.66-30.91L13.66-30.91L13.66-30.91Q13.49-30 13.30-29.09L13.30-29.09L13.30-29.09Q12.91-26.98 12.43-24.34L12.43-24.34L12.72-24.38L12.72-24.38Q13.20-25.15 14.09-26.52L14.09-26.52L14.09-26.52Q14.98-27.89 15.94-29.42L15.94-29.42L15.94-29.42Q16.90-30.96 17.81-32.38L17.81-32.38L17.81-32.38Q18.72-33.79 19.34-34.80L19.34-34.80L19.34-34.80Q21.74-34.99 24.14-35.23L24.14-35.23L24.14-35.23Q26.54-35.47 28.94-35.86L28.94-35.86L28.94-35.86Q26.69-32.83 24.58-29.90L24.58-29.90L24.58-29.90Q23.66-28.66 22.73-27.31L22.73-27.31L22.73-27.31Q21.79-25.97 20.88-24.67L20.88-24.67L20.88-24.67Q19.97-23.38 19.18-22.18L19.18-22.18L19.18-22.18Q18.38-20.98 17.76-19.97L17.76-19.97L17.76-19.97Q18.82-15.12 20.26-10.61L20.26-10.61L20.26-10.61Q21.70-6.10 23.18-1.39L23.18-1.39L23.18-1.39Q22.08-1.44 20.93-1.46L20.93-1.46L20.93-1.46Q19.78-1.49 18.67-1.49L18.67-1.49L18.67-1.49Q17.28-1.49 15.98-1.46L15.98-1.46L15.98-1.46Q14.69-1.44 13.30-1.39L13.30-1.39L13.30-1.39Q12.86-4.51 12.36-7.94L12.36-7.94L12.36-7.94Q11.86-11.38 11.42-14.50L11.42-14.50L10.56-13.49L10.56-13.49Q10.22-12.05 9.82-9.94L9.82-9.94L9.82-9.94Q9.41-7.82 9.02-5.86L9.02-5.86L9.02-5.86Q8.59-3.55 8.11-1.10L8.11-1.10ZM39.84-0.96L39.84-0.96Q38.64-0.77 37.20-0.53L37.20-0.53L37.20-0.53Q35.76-0.29 34.61-0.10L34.61-0.10L34.61-0.10Q34.80-1.68 34.99-3.22L34.99-3.22L34.99-3.22Q35.14-4.56 35.26-5.90L35.26-5.90L35.26-5.90Q35.38-7.25 35.47-8.21L35.47-8.21L31.30-8.21L29.38-1.30L29.38-1.30Q28.32-1.15 26.88-0.98L26.88-0.98L26.88-0.98Q25.44-0.82 24.19-0.67L24.19-0.67L24.19-0.67Q22.66-0.48 21.17-0.29L21.17-0.29L21.17-0.29Q23.09-6.67 24.96-12.86L24.96-12.86L24.96-12.86Q25.73-15.46 26.57-18.29L26.57-18.29L26.57-18.29Q27.41-21.12 28.25-23.93L28.25-23.93L28.25-23.93Q29.09-26.74 29.86-29.33L29.86-29.33L29.86-29.33Q30.62-31.92 31.20-34.08L31.20-34.08L31.20-34.08Q34.46-34.32 37.85-34.66L37.85-34.66L37.85-34.66Q41.23-34.99 44.45-35.57L44.45-35.57L44.45-35.57Q44.30-34.03 44.14-31.75L44.14-31.75L44.14-31.75Q43.97-29.47 43.82-26.78L43.82-26.78L43.82-26.78Q43.68-24.10 43.54-21.17L43.54-21.17L43.54-21.17Q43.39-18.24 43.25-15.41L43.25-15.41L43.25-15.41Q43.01-8.78 42.72-1.34L42.72-1.34L42.72-1.34Q41.28-1.10 39.84-0.96L39.84-0.96ZM35.42-25.06L32.45-13.01L32.45-13.01Q32.64-13.01 33.14-13.03L33.14-13.03L33.14-13.03Q33.65-13.06 34.20-13.08L34.20-13.08L34.20-13.08Q34.75-13.10 35.23-13.13L35.23-13.13L35.23-13.13Q35.71-13.15 35.90-13.20L35.90-13.20L35.90-13.20Q35.90-13.49 35.98-14.18L35.98-14.18L35.98-14.18Q36.05-14.88 36.12-15.77L36.12-15.77L36.12-15.77Q36.19-16.66 36.29-17.71L36.29-17.71L36.29-17.71Q36.38-18.77 36.48-19.78L36.48-19.78L36.48-19.78Q36.67-22.22 36.96-25.06L36.96-25.06L37.25-29.23L36.53-29.18L35.42-25.06ZM50.93-1.97L43.15 0.05L43.15 0.05Q44.45-6.34 45.65-12.43L45.65-12.43L45.65-12.43Q46.08-15.02 46.61-17.83L46.61-17.83L46.61-17.83Q47.14-20.64 47.59-23.40L47.59-23.40L47.59-23.40Q48.05-26.16 48.46-28.73L48.46-28.73L48.46-28.73Q48.86-31.30 49.10-33.41L49.10-33.41L49.10-33.41Q51.84-34.27 55.01-34.68L55.01-34.68L55.01-34.68Q58.18-35.09 61.30-35.09L61.30-35.09L61.30-35.09Q63.17-35.09 64.39-34.66L64.39-34.66L64.39-34.66Q65.62-34.22 66.31-33.43L66.31-33.43L66.31-33.43Q67.01-32.64 67.30-31.58L67.30-31.58L67.30-31.58Q67.58-30.53 67.58-29.23L67.58-29.23L67.58-29.23Q67.58-27.31 66.91-25.46L66.91-25.46L66.91-25.46Q66.24-23.62 65.11-21.96L65.11-21.96L65.11-21.96Q63.98-20.30 62.52-18.94L62.52-18.94L62.52-18.94Q61.06-17.57 59.38-16.70L59.38-16.70L59.38-16.70Q60.24-14.78 61.22-12.50L61.22-12.50L61.22-12.50Q62.21-10.22 63.07-8.16L63.07-8.16L63.07-8.16Q64.03-5.76 65.04-3.36L65.04-3.36L57.60-0.77L57.60-0.77Q56.64-4.08 55.87-7.01L55.87-7.01L55.87-7.01Q55.54-8.21 55.20-9.48L55.20-9.48L55.20-9.48Q54.86-10.75 54.58-11.88L54.58-11.88L54.58-11.88Q54.29-13.01 54.10-13.87L54.10-13.87L54.10-13.87Q53.90-14.74 53.86-15.22L53.86-15.22L53.23-15.02L53.23-15.02Q52.94-13.49 52.54-11.28L52.54-11.28L52.54-11.28Q52.13-9.07 51.79-7.01L51.79-7.01L51.79-7.01Q51.36-4.56 50.93-1.97L50.93-1.97ZM55.97-28.42L54.43-20.78L54.43-20.78Q55.34-20.88 56.66-21.55L56.66-21.55L56.66-21.55Q57.98-22.22 59.18-23.16L59.18-23.16L59.18-23.16Q60.38-24.10 61.25-25.10L61.25-25.10L61.25-25.10Q62.11-26.11 62.11-26.88L62.11-26.88L62.11-26.88Q62.11-27.41 61.78-27.72L61.78-27.72L61.78-27.72Q61.44-28.03 60.84-28.20L60.84-28.20L60.84-28.20Q60.24-28.37 59.52-28.42L59.52-28.42L59.52-28.42Q58.80-28.46 58.03-28.46L58.03-28.46L58.03-28.46Q57.50-28.46 56.95-28.44L56.95-28.44L56.95-28.44Q56.40-28.42 55.97-28.42L55.97-28.42ZM77.23-1.30L68.59 0.05L68.59 0.05Q69.70-5.23 70.70-10.37L70.70-10.37L70.70-10.37Q71.14-12.53 71.57-14.88L71.57-14.88L71.57-14.88Q72-17.23 72.41-19.51L72.41-19.51L72.41-19.51Q72.82-21.79 73.13-23.93L73.13-23.93L73.13-23.93Q73.44-26.06 73.68-27.84L73.68-27.84L73.68-27.84Q72.58-27.98 71.45-27.94L71.45-27.94L71.45-27.94Q70.32-27.89 69.22-28.22L69.22-28.22L69.22-28.22Q69.26-28.99 69.26-30L69.26-30L69.26-30Q69.26-31.01 69.31-32.02L69.31-32.02L69.31-32.02Q69.36-33.12 69.41-34.37L69.41-34.37L69.41-34.37Q70.66-34.27 71.90-34.22L71.90-34.22L71.90-34.22Q73.15-34.18 74.40-34.18L74.40-34.18L74.40-34.18Q76.85-34.18 79.13-34.30L79.13-34.30L79.13-34.30Q81.41-34.42 83.35-34.58L83.35-34.58L83.35-34.58Q85.30-34.75 87.17-34.99L87.17-34.99L86.64-32.40L86.64-32.40Q86.40-31.30 86.18-30.14L86.18-30.14L86.18-30.14Q85.97-28.99 85.78-28.18L85.78-28.18L85.78-28.18Q84.72-27.89 83.64-27.77L83.64-27.77L83.64-27.77Q82.56-27.65 81.50-27.46L81.50-27.46L81.50-27.46Q81.17-25.82 80.78-23.83L80.78-23.83L80.78-23.83Q80.40-21.84 80.04-19.70L80.04-19.70L80.04-19.70Q79.68-17.57 79.34-15.36L79.34-15.36L79.34-15.36Q79.01-13.15 78.67-11.14L78.67-11.14L78.67-11.14Q77.90-6.38 77.23-1.30L77.23-1.30ZM89.47-1.44L82.08 0.10L82.08 0.10Q83.33-6.53 84.53-12.91L84.53-12.91L84.53-12.91Q84.96-15.60 85.49-18.50L85.49-18.50L85.49-18.50Q86.02-21.41 86.50-24.24L86.50-24.24L86.50-24.24Q86.98-27.07 87.41-29.74L87.41-29.74L87.41-29.74Q87.84-32.40 88.18-34.61L88.18-34.61L95.95-35.14L95.95-35.14Q95.14-31.78 94.34-28.13L94.34-28.13L94.34-28.13Q93.55-24.48 92.88-21.02L92.88-21.02L97.63-21.55L97.63-21.55Q98.30-24.96 98.83-28.15L98.83-28.15L98.83-28.15Q99.36-31.34 100.22-34.75L100.22-34.75L100.22-34.75Q101.33-34.94 102.67-35.06L102.67-35.06L102.67-35.06Q104.02-35.18 105.17-35.28L105.17-35.28L105.17-35.28Q106.32-35.38 107.11-35.45L107.11-35.45L107.11-35.45Q107.90-35.52 107.90-35.52L107.90-35.52L107.90-35.52Q107.23-33.36 106.63-30.79L106.63-30.79L106.63-30.79Q106.03-28.22 105.46-25.46L105.46-25.46L105.46-25.46Q104.88-22.70 104.35-19.87L104.35-19.87L104.35-19.87Q103.82-17.04 103.39-14.50L103.39-14.50L103.39-14.50Q102.34-8.40 101.42-2.02L101.42-2.02L93.94-1.15L93.94-1.15Q94.56-4.03 95.04-6.77L95.04-6.77L95.04-6.77Q95.52-9.07 96.02-11.57L96.02-11.57L96.02-11.57Q96.53-14.06 96.82-15.84L96.82-15.84L92.16-15.41L92.16-15.41Q91.82-13.58 91.37-11.18L91.37-11.18L91.37-11.18Q90.91-8.78 90.53-6.62L90.53-6.62L90.53-6.62Q90.00-4.03 89.47-1.44L89.47-1.44ZM110.45-0.96L110.45-0.96Q110.02-0.96 108.77-0.84L108.77-0.84L108.77-0.84Q107.52-0.72 106.18-0.55L106.18-0.55L106.18-0.55Q104.83-0.38 103.75-0.24L103.75-0.24L103.75-0.24Q102.67-0.10 102.58-0.05L102.58-0.05L102.58-0.05Q103.15-2.11 103.73-4.63L103.73-4.63L103.73-4.63Q104.30-7.15 104.90-9.91L104.90-9.91L104.90-9.91Q105.50-12.67 106.06-15.50L106.06-15.50L106.06-15.50Q106.61-18.34 107.14-20.98L107.14-20.98L107.14-20.98Q108.34-27.12 109.49-33.60L109.49-33.60L116.98-34.80L116.98-34.80Q115.73-28.37 114.48-22.18L114.48-22.18L114.48-22.18Q113.95-19.54 113.40-16.70L113.40-16.70L113.40-16.70Q112.85-13.87 112.34-11.09L112.34-11.09L112.34-11.09Q111.84-8.30 111.34-5.69L111.34-5.69L111.34-5.69Q110.83-3.07 110.45-0.96L110.45-0.96ZM132.96-10.32L132.96-10.32Q131.81-7.68 130.39-5.74L130.39-5.74L130.39-5.74Q128.98-3.79 127.42-2.47L127.42-2.47L127.42-2.47Q125.86-1.15 124.27-0.53L124.27-0.53L124.27-0.53Q122.69 0.10 121.20 0.10L121.20 0.10L121.20 0.10Q119.71 0.10 118.49-0.58L118.49-0.58L118.49-0.58Q117.26-1.25 116.35-2.59L116.35-2.59L116.35-2.59Q115.44-3.94 114.89-5.90L114.89-5.90L114.89-5.90Q114.34-7.87 114.34-10.51L114.34-10.51L114.34-10.51Q114.34-15.02 115.58-19.42L115.58-19.42L115.58-19.42Q116.83-23.81 119.09-27.31L119.09-27.31L119.09-27.31Q121.34-30.82 124.44-32.95L124.44-32.95L124.44-32.95Q127.54-35.09 131.28-35.09L131.28-35.09L131.28-35.09Q132.43-35.09 133.49-34.61L133.49-34.61L133.49-34.61Q134.54-34.13 135.31-33.26L135.31-33.26L135.31-33.26Q136.08-32.40 136.54-31.15L136.54-31.15L136.54-31.15Q136.99-29.90 136.99-28.37L136.99-28.37L136.99-28.37Q136.99-28.08 136.99-27.77L136.99-27.77L136.99-27.77Q136.99-27.46 136.94-27.12L136.94-27.12L130.66-25.44L130.66-25.44Q130.08-26.64 129.31-26.64L129.31-26.64L129.31-26.64Q128.54-26.64 127.70-25.75L127.70-25.75L127.70-25.75Q126.86-24.86 126.05-23.45L126.05-23.45L126.05-23.45Q125.23-22.03 124.46-20.28L124.46-20.28L124.46-20.28Q123.70-18.53 123.12-16.75L123.12-16.75L123.12-16.75Q122.54-14.98 122.18-13.37L122.18-13.37L122.18-13.37Q121.82-11.76 121.82-10.75L121.82-10.75L121.82-10.75Q121.82-9.22 122.23-8.59L122.23-8.59L122.23-8.59Q122.64-7.97 123.31-7.97L123.31-7.97L123.31-7.97Q123.84-7.97 124.51-8.38L124.51-8.38L124.51-8.38Q125.18-8.78 125.76-9.43L125.76-9.43L125.76-9.43Q126.34-10.08 126.82-10.90L126.82-10.90L126.82-10.90Q127.30-11.71 127.49-12.53L127.49-12.53L132.96-10.32ZM140.45-1.10L132.67 0.05L132.67 0.05Q134.11-6.67 135.36-13.01L135.36-13.01L135.36-13.01Q135.84-15.74 136.37-18.67L136.37-18.67L136.37-18.67Q136.90-21.60 137.35-24.48L137.35-24.48L137.35-24.48Q137.81-27.36 138.17-30.07L138.17-30.07L138.17-30.07Q138.53-32.78 138.72-34.99L138.72-34.99L138.72-34.99Q139.82-34.90 141.22-34.82L141.22-34.82L141.22-34.82Q142.61-34.75 143.81-34.66L143.81-34.66L143.81-34.66Q145.25-34.56 146.69-34.56L146.69-34.56L146.69-34.56Q146.64-34.37 146.54-33.84L146.54-33.84L146.54-33.84Q146.45-33.31 146.30-32.57L146.30-32.57L146.30-32.57Q146.16-31.82 145.99-30.91L145.99-30.91L145.99-30.91Q145.82-30 145.63-29.09L145.63-29.09L145.63-29.09Q145.25-26.98 144.77-24.34L144.77-24.34L145.06-24.38L145.06-24.38Q145.54-25.15 146.42-26.52L146.42-26.52L146.42-26.52Q147.31-27.89 148.27-29.42L148.27-29.42L148.27-29.42Q149.23-30.96 150.14-32.38L150.14-32.38L150.14-32.38Q151.06-33.79 151.68-34.80L151.68-34.80L151.68-34.80Q154.08-34.99 156.48-35.23L156.48-35.23L156.48-35.23Q158.88-35.47 161.28-35.86L161.28-35.86L161.28-35.86Q159.02-32.83 156.91-29.90L156.91-29.90L156.91-29.90Q156-28.66 155.06-27.31L155.06-27.31L155.06-27.31Q154.13-25.97 153.22-24.67L153.22-24.67L153.22-24.67Q152.30-23.38 151.51-22.18L151.51-22.18L151.51-22.18Q150.72-20.98 150.10-19.97L150.10-19.97L150.10-19.97Q151.15-15.12 152.59-10.61L152.59-10.61L152.59-10.61Q154.03-6.10 155.52-1.39L155.52-1.39L155.52-1.39Q154.42-1.44 153.26-1.46L153.26-1.46L153.26-1.46Q152.11-1.49 151.01-1.49L151.01-1.49L151.01-1.49Q149.62-1.49 148.32-1.46L148.32-1.46L148.32-1.46Q147.02-1.44 145.63-1.39L145.63-1.39L145.63-1.39Q145.20-4.51 144.70-7.94L144.70-7.94L144.70-7.94Q144.19-11.38 143.76-14.50L143.76-14.50L142.90-13.49L142.90-13.49Q142.56-12.05 142.15-9.94L142.15-9.94L142.15-9.94Q141.74-7.82 141.36-5.86L141.36-5.86L141.36-5.86Q140.93-3.55 140.45-1.10L140.45-1.10ZM185.57-12.05L185.57-12.05Q185.57-10.08 184.75-8.40L184.75-8.40L184.75-8.40Q183.94-6.72 182.54-5.35L182.54-5.35L182.54-5.35Q181.15-3.98 179.30-2.95L179.30-2.95L179.30-2.95Q177.46-1.92 175.42-1.22L175.42-1.22L175.42-1.22Q173.38-0.53 171.24-0.17L171.24-0.17L171.24-0.17Q169.10 0.19 167.14 0.19L167.14 0.19L167.14 0.19Q165.36 0.19 163.82-0.10L163.82-0.10L163.82-0.10Q166.13-8.50 167.50-17.02L167.50-17.02L167.50-17.02Q168.86-25.54 170.11-34.18L170.11-34.18L170.11-34.18Q172.61-34.70 175.30-35.11L175.30-35.11L175.30-35.11Q177.98-35.52 180.86-35.52L180.86-35.52L180.86-35.52Q182.06-35.52 183.41-35.23L183.41-35.23L183.41-35.23Q184.75-34.94 185.86-34.18L185.86-34.18L185.86-34.18Q186.96-33.41 187.70-32.16L187.70-32.16L187.70-32.16Q188.45-30.91 188.45-28.99L188.45-28.99L188.45-28.99Q188.45-27.17 187.85-25.58L187.85-25.58L187.85-25.58Q187.25-24 186.31-22.70L186.31-22.70L186.31-22.70Q185.38-21.41 184.18-20.47L184.18-20.47L184.18-20.47Q182.98-19.54 181.73-19.06L181.73-19.06L181.73-19.06Q182.35-18.72 183.02-18.10L183.02-18.10L183.02-18.10Q183.70-17.47 184.27-16.63L184.27-16.63L184.27-16.63Q184.85-15.79 185.21-14.64L185.21-14.64L185.21-14.64Q185.57-13.49 185.57-12.05L185.57-12.05ZM174.58-17.04L174.58-17.04Q174.38-15.89 174.22-15L174.22-15L174.22-15Q174.05-14.11 173.90-13.30L173.90-13.30L173.90-13.30Q173.76-12.48 173.59-11.59L173.59-11.59L173.59-11.59Q173.42-10.70 173.23-9.50L173.23-9.50L173.23-9.50Q174.14-9.60 175.30-9.84L175.30-9.84L175.30-9.84Q176.45-10.08 177.50-10.58L177.50-10.58L177.50-10.58Q178.56-11.09 179.28-11.93L179.28-11.93L179.28-11.93Q180-12.77 180-13.97L180-13.97L180-13.97Q180-14.83 179.54-15.41L179.54-15.41L179.54-15.41Q179.09-15.98 178.39-16.37L178.39-16.37L178.39-16.37Q177.70-16.75 176.88-16.92L176.88-16.92L176.88-16.92Q176.06-17.09 175.34-17.09L175.34-17.09L175.34-17.09Q175.10-17.09 174.94-17.09L174.94-17.09L174.94-17.09Q174.77-17.09 174.58-17.04L174.58-17.04ZM176.74-28.66L176.74-28.66Q176.64-28.13 176.52-27.41L176.52-27.41L176.52-27.41Q176.40-26.69 176.26-25.90L176.26-25.90L176.26-25.90Q176.11-25.10 175.94-24.34L175.94-24.34L175.94-24.34Q175.78-23.57 175.68-22.99L175.68-22.99L175.68-22.99Q176.74-23.18 177.79-23.52L177.79-23.52L177.79-23.52Q178.85-23.86 179.69-24.26L179.69-24.26L179.69-24.26Q180.53-24.67 181.03-25.15L181.03-25.15L181.03-25.15Q181.54-25.63 181.54-26.21L181.54-26.21L181.54-26.21Q181.54-26.93 181.10-27.38L181.10-27.38L181.10-27.38Q180.67-27.84 179.98-28.13L179.98-28.13L179.98-28.13Q179.28-28.42 178.54-28.54L178.54-28.54L178.54-28.54Q177.79-28.66 177.22-28.66L177.22-28.66L176.74-28.66Z" fill="url(#editing-gradient-gradient)"></path></g></g><style>text {
  font-size: 64px;
  font-family: Arial Black;
  dominant-baseline: central;
  text-anchor: middle;
}</style></svg>